<svg xmlns="http://www.w3.org/2000/svg" style="display:none">
  
  <defs>
    <symbol id="wave" viewBox="0 0 24 24" fill="none" stroke="currentColor" stroke-width="2" stroke-linecap="round" stroke-linejoin="round">
      <path d="M3 12h2l3-9 4 18 3-12 2 6h4"></path>
    </symbol>
    <symbol id="face" viewBox="0 0 24 24" fill="none" stroke="currentColor" stroke-width="2" stroke-linecap="round" stroke-linejoin="round">
      <circle cx="12" cy="12" r="10"></circle>
      <path d="M9 13c0 1.7 1.3 3 3 3s3-1.3 3-3"></path>
      <path d="M9 9h.01M15 9h.01"></path>
    </symbol>
    <symbol id="body" viewBox="0 0 24 24" fill="none" stroke="currentColor" stroke-width="2" stroke-linecap="round" stroke-linejoin="round">
      <circle cx="12" cy="5" r="3"></circle>
      <path d="M10 9v4l-3 9h2l2-6 1 6h2l1-6 2 6h2l-3-9V9"></path>
    </symbol>
    <symbol id="code" viewBox="0 0 24 24" fill="none" stroke="currentColor" stroke-width="2" stroke-linecap="round" stroke-linejoin="round">
      <path d="M9 7l-4 5 4 5M15 7l4 5-4 5"></path>
    </symbol>
    <symbol id="server" viewBox="0 0 24 24" fill="none" stroke="currentColor" stroke-width="2" stroke-linecap="round" stroke-linejoin="round">
      <rect x="3" y="4" width="18" height="7" rx="2"></rect>
      <rect x="3" y="13" width="18" height="7" rx="2"></rect>
      <path d="M7 8h.01M7 17h.01"></path>
    </symbol>
    <symbol id="shield" viewBox="0 0 24 24" fill="none" stroke="currentColor" stroke-width="2" stroke-linecap="round" stroke-linejoin="round">
      <path d="M12 22s8-4 8-10V5l-8-3-8 3v7c0 6 8 10 8 10Z"></path>
      <path d="M9 12l2 2 4-4"></path>
    </symbol>
    <symbol id="cog" viewBox="0 0 24 24" fill="none" stroke="currentColor" stroke-width="2" stroke-linecap="round" stroke-linejoin="round">
      <path d="M12 15a3 3 0 1 0 0-6 3 3 0 0 0 0 6Z"></path>
      <path d="M19 12a7 7 0 0 0-.1-1.2l2-1.6-2-3.4-2.4.9a7 7 0 0 0-2.1-1.2L14 3h-4l-.4 2.5a7 7 0 0 0-2.1 1.2l-2.4-.9-2 3.4 2 1.6A7 7 0 0 0 5 12c0 .4 0 .8.1 1.2l-2 1.6 2 3.4 2.4-.9a7 7 0 0 0 2.1 1.2L10 21h4l.4-2.5a7 7 0 0 0 2.1-1.2l2.4.9 2-3.4-2-1.6c.1-.4.1-.8.1-1.2Z"></path>
    </symbol>
    <symbol id="play" viewBox="0 0 24 24" fill="none" stroke="currentColor" stroke-width="2" stroke-linecap="round" stroke-linejoin="round">
      <path d="M6 4l14 8-14 8Z"></path>
    </symbol>
    <symbol id="chart" viewBox="0 0 24 24" fill="none" stroke="currentColor" stroke-width="2" stroke-linecap="round" stroke-linejoin="round">
      <path d="M4 20V8M10 20V4M16 20v-8M22 20H2"></path>
    </symbol>
    <symbol id="headphones" viewBox="0 0 24 24" fill="none" stroke="currentColor" stroke-width="2" stroke-linecap="round" stroke-linejoin="round">
      <path d="M3 18v-6a9 9 0 0 1 18 0v6"></path>
      <path d="M21 19a2 2 0 0 1-2 2h-1v-7h2a1 1 0 0 1 1 1ZM3 19a2 2 0 0 0 2 2h1v-7H4a1 1 0 0 0-1 1Z"></path>
    </symbol>
    <symbol id="terminal" viewBox="0 0 24 24" fill="none" stroke="currentColor" stroke-width="2" stroke-linecap="round" stroke-linejoin="round">
      <path d="M5 8l4 4-4 4M12 16h7"></path>
    </symbol>
    <symbol id="arrow-right" viewBox="0 0 24 24" fill="none" stroke="currentColor" stroke-width="2.5" stroke-linecap="round" stroke-linejoin="round">
      <path d="M5 12h14M13 5l7 7-7 7"></path>
    </symbol>
    <symbol id="github" viewBox="0 0 24 24" fill="currentColor">
      <path d="M12 .5C5.65.5.5 5.65.5 12c0 5.08 3.29 9.39 7.86 10.91.58.1.79-.25.79-.56v-2.13c-3.2.7-3.87-1.37-3.87-1.37-.52-1.33-1.28-1.69-1.28-1.69-1.05-.72.08-.7.08-.7 1.16.08 1.77 1.19 1.77 1.19 1.03 1.77 2.7 1.26 3.36.96.1-.75.4-1.26.73-1.55-2.55-.29-5.23-1.28-5.23-5.69 0-1.26.45-2.29 1.18-3.1-.12-.29-.51-1.46.11-3.05 0 0 .97-.31 3.18 1.18A11 11 0 0 1 12 6.78c.99 0 1.99.13 2.93.39 2.21-1.49 3.18-1.18 3.18-1.18.62 1.59.23 2.76.11 3.05.74.81 1.18 1.84 1.18 3.1 0 4.42-2.69 5.4-5.25 5.68.41.36.78 1.06.78 2.14v3.17c0 .31.21.67.8.56 4.56-1.52 7.85-5.83 7.85-10.91C23.5 5.65 18.35.5 12 .5Z"></path>
    </symbol>
  </defs>
</svg>